HIERARCHY
ROOT pelvis
{
  OFFSET 0 100 0
  CHANNELS 6 Xposition Yposition Zposition Zrotation Xrotation Yrotation
  JOINT pelvis_right_femur
  {
    OFFSET -10.78128 -3.44521 -0.5502486
    CHANNELS 3 Zrotation Xrotation Yrotation
    JOINT right_femur_tibia
    {
      OFFSET -0.8047443 -44.0398 -0.1307829
      CHANNELS 3 Zrotation Xrotation Yrotation
      JOINT right_tibia_foot
      {
        OFFSET 3.006224 -47.83518 -5
        CHANNELS 3 Zrotation Xrotation Yrotation
        End Site
        {
          OFFSET 0 -5 15
        }
      }
    }
  }
  JOINT pelvis_left_femur
  {
    OFFSET 10.78128 -3.44521 -0.5502486
    CHANNELS 3 Zrotation Xrotation Yrotation
    JOINT left_femur_tibia
    {
      OFFSET 0.8047443 -44.0398 -0.1307829
      CHANNELS 3 Zrotation Xrotation Yrotation
      JOINT left_tibia_foot
      {
        OFFSET -4.370144 -48.10324 -4.275266
        CHANNELS 3 Zrotation Xrotation Yrotation
        End Site
        {
          OFFSET 0 -5 15
        }
      }
    }
  }
  JOINT pelvis_spine1
  {
    OFFSET 0 6.468898 -3.129235
    CHANNELS 3 Zrotation Xrotation Yrotation
    JOINT spine1
    {
      OFFSET 0 23.15396 4.99043
      CHANNELS 3 Zrotation Xrotation Yrotation
      JOINT spine2
      {
        OFFSET 0 20.79997 -5.064912
        CHANNELS 3 Zrotation Xrotation Yrotation
        JOINT neck
        {
          OFFSET 0 14.38658 9.616178
          CHANNELS 3 Zrotation Xrotation Yrotation
          End Site
          {
            OFFSET 0 20 0
          }
        }
      }
      JOINT right_manubrium
      {
        OFFSET -5.722621 16.35077 3.967754
        CHANNELS 3 Zrotation Xrotation Yrotation
        JOINT right_clavicle
        {
          OFFSET -13.16364 1.694482 -4.693211
          CHANNELS 3 Zrotation Xrotation Yrotation
          JOINT right_humerus
          {
            OFFSET -28.5034 -0.3100689 -2.792744
            CHANNELS 3 Zrotation Xrotation Yrotation
            JOINT right_radius
            {
              OFFSET -25.15693 0.02248979 -1.271978
              CHANNELS 3 Zrotation Xrotation Yrotation
              End Site
              {
                OFFSET -15 0 0
              }
            }
          }
        }
      }
      JOINT left_manubrium
      {
        OFFSET 5.722621 16.35077 3.967754
        CHANNELS 3 Zrotation Xrotation Yrotation
        JOINT left_clavicle
        {
          OFFSET 13.16364 1.694482 -4.693211
          CHANNELS 3 Zrotation Xrotation Yrotation
          JOINT left_humerus
          {
            OFFSET 29.39168 -1.063119 -2.237045
            CHANNELS 3 Zrotation Xrotation Yrotation
            JOINT left_radius
            {
              OFFSET 24.59957 -0.9528479 0.9047498
              CHANNELS 3 Zrotation Xrotation Yrotation
              End Site
              {
                OFFSET 15 -0 -0
              }
            }
          }
        }
      }
    }
  }
}
MOTION
Frames: 17
Frame Time: 0.0416666666667
0 103.5113 0 -0.1707513 -0.7660538 -0.01507717 4.530685 -17.2842 9.787952 -0 39.76114 -0 -5.819343 -16.62697 -4.260622 -6.261427 11.01602 -22.82887 -0 4.221303 -0 9.809297 -16.28159 27.61786 -3.270651 -3.86195 3.93393 3.155799 9.602835 -8.05523 1.31137 22.41215 6.882221 2.094745 -26.27913 10.36489 5.315447 -20.29086 11.68544 86.51257 33.4433 -18.99537 -0 0 14.7221 -7.72197 8.446268 5.532259 4.895473 -19.47205 -1.42678 -94.33836 26.77452 22.70598 0 0 -14.49388 8.136791 17.9095 5.318694
0.2313514 103.3643 1.476788 -0.1703593 -0.599407 -0.02257782 4.619226 -17.71345 9.836988 -0 39.47113 -0 -5.712636 -16.61169 -4.21551 -6.305094 11.00014 -22.82422 -0 4.155262 -0 9.770163 -16.54695 27.59438 -3.282413 -3.843138 4.013782 3.145512 9.56966 -8.059013 1.322014 22.28761 6.9036 2.163258 -26.30705 10.36264 5.412887 -20.2571 11.66861 86.40344 33.56566 -19.01461 -0 0 14.89875 -7.573177 8.504217 5.40507 5.059282 -19.52543 -1.310911 -94.38109 26.68639 22.72934 0 0 -14.56063 8.254331 17.87734 5.179745
0.5964997 103.0645 2.97957 -0.2089813 1.597114 0.08144478 5.851262 -22.9108 10.66637 -0 35.92687 -0 -4.512029 -15.93698 -3.547713 -6.848265 10.74794 -22.69988 -0 3.176811 -0 8.958998 -19.89073 27.0076 -3.457282 -3.571659 5.003662 3.111175 9.143233 -8.110763 1.356668 20.77586 7.270389 3.041922 -26.82403 10.32654 6.666452 -19.87648 11.5533 85.24104 35.08562 -19.48961 -0 0 16.80661 -5.474481 8.851103 3.917312 6.931716 -20.2316 0.04523699 -95.3703 26.18181 23.59481 0 0 -15.40668 8.971902 17.25284 4.520676
1.037237 102.6748 4.528043 -0.3298424 2.778457 0.2932928 6.577899 -25.42952 11.22835 -0 34.52887 -0 -4.158512 -15.05007 -3.137838 -7.046082 10.58155 -22.67528 -0 2.485903 -0 7.897932 -21.68867 26.32124 -3.462089 -3.376631 5.46566 3.06654 8.881294 -8.075017 1.360117 20.07736 7.524146 3.539723 -27.14551 10.33007 7.316965 -19.68686 11.51411 84.81167 35.81355 -19.87618 -0 0 17.59899 -4.348546 8.77063 3.248705 7.728505 -20.58979 0.6253095 -96.35329 26.66793 24.61162 0 0 -15.79622 8.510886 16.99409 5.410889
1.508104 102.3338 6.016988 -0.4320936 3.274212 0.5740284 6.92483 -26.04093 11.77403 -0 35.19497 -0 -4.111102 -14.87513 -3.082254 -7.103531 10.45326 -23.11691 -0 2.184538 -0 6.850045 -22.50292 26.00063 -3.390827 -3.322448 5.664735 2.939811 8.65505 -7.990836 1.408585 19.88463 7.646143 3.803504 -27.21851 10.36854 7.73843 -19.60892 11.44853 84.55912 36.38089 -20.05645 -0 0 18.13299 -3.635055 8.636092 2.822872 7.897881 -20.53734 0.8544241 -97.50444 27.96132 25.9043 0 0 -15.77662 7.190542 17.27502 7.332681
1.974262 102.0507 7.488353 -0.5492018 3.387266 0.8999347 7.019737 -26.17053 11.83906 -0 35.84059 -0 -4.35372 -14.53047 -3.091786 -6.992173 10.53483 -23.47502 -0 2.205825 -0 5.351441 -23.15072 25.45261 -3.196971 -3.231079 5.672248 2.704031 8.448769 -7.914113 1.483113 19.92287 7.723405 4.05444 -27.03829 10.32836 7.909754 -19.49524 11.30523 84.49258 36.72337 -20.24814 -0 0 18.44446 -3.521566 8.602992 2.492086 7.943227 -20.50819 0.8295152 -98.42987 29.55193 26.87564 0 0 -15.9949 5.496001 17.85821 9.55775
2.4176 101.8079 8.978756 -0.6409082 3.313182 1.263119 6.965139 -26.16816 11.6012 -0 36.19061 -0 -4.719327 -13.9965 -3.120891 -6.816267 10.74056 -23.73956 -0 2.395053 -0 3.551937 -23.80018 24.70675 -2.955948 -3.081399 5.594473 2.399277 8.238284 -7.834535 1.568216 20.07562 7.790457 4.320272 -26.69825 10.23025 7.93385 -19.34146 11.1156 84.56384 36.96368 -20.50203 -0 0 18.60253 -3.71347 8.608482 2.207776 7.951702 -20.52197 0.6535289 -99.22477 31.39125 27.65063 0 0 -16.55084 3.477997 18.46387 12.09993
2.828402 101.5567 10.54923 -0.7009716 3.149632 1.667792 6.810325 -26.31676 11.07688 -0 35.86586 -0 -5.158272 -13.13282 -3.124851 -6.602171 11.04406 -23.80305 -0 2.662164 -0 1.518345 -24.53486 23.70197 -2.692009 -2.840267 5.463544 2.051001 8.030361 -7.755823 1.655515 20.27122 7.862263 4.614758 -26.24243 10.07522 7.826216 -19.13458 10.89778 84.78156 37.10769 -20.84806 -0 0 18.58533 -4.162552 8.650487 1.99495 7.988969 -20.63323 0.3595792 -99.78831 33.32501 28.11686 0 0 -17.53442 1.318568 18.90331 14.76871
3.200034 101.2292 12.27769 -0.7300334 2.936695 2.120724 6.575988 -26.75783 10.27925 -0 34.62842 -0 -5.639874 -11.89364 -3.103008 -6.355001 11.43956 -23.58286 -0 2.977502 -0 -0.6603546 -25.35246 22.4259 -2.420167 -2.491836 5.28407 1.685365 7.835688 -7.6901 1.742988 20.47372 7.936144 4.924689 -25.70205 9.870235 7.577813 -18.86636 10.66315 85.1619 37.13912 -21.29264 -0 0 18.35086 -4.864902 8.747401 1.88905 8.07913 -20.86742 -0.03275646 -99.97078 35.21918 28.11079 0 0 -18.9733 -0.7907878 19.07565 17.34892
3.527665 100.7481 14.25787 -0.7405505 2.704398 2.628233 6.288402 -27.58761 9.247916 -0 32.32685 -0 -6.129038 -10.29279 -3.080283 -6.070465 11.93605 -23.00552 -0 3.347644 -0 -2.856683 -26.20315 20.90579 -2.150461 -2.033996 5.051175 1.338808 7.665426 -7.656152 1.831577 20.65448 7.999273 5.21648 -25.12142 9.633911 7.1736 -18.53029 10.42159 85.72044 37.02765 -21.829 -0 0 17.84627 -5.807009 8.919617 1.924914 8.227784 -21.23242 -0.4941285 -99.59077 36.91008 27.43707 0 0 -20.83195 -2.609588 18.93069 19.56631
3.808961 100.0453 16.59125 -0.7538196 2.478534 3.193894 5.989664 -28.81877 8.078559 -0 29.01522 -0 -6.56932 -8.428941 -3.105387 -5.7467 12.54559 -22.04144 -0 3.82245 -0 -4.901602 -26.98593 19.23062 -1.890181 -1.489379 4.761288 1.055458 7.528525 -7.673473 1.921943 20.7908 8.031716 5.440514 -24.55769 9.395573 6.61599 -18.12743 10.1853 86.45388 36.74934 -22.43231 -0 0 17.03823 -6.927787 9.172323 2.121203 8.416695 -21.70184 -0.980448 -98.52196 38.21564 25.96755 0 0 -22.97887 -3.904142 18.46676 21.15661
4.044869 99.08237 19.37945 -0.7960435 2.267948 3.815802 5.735298 -30.34726 6.902087 -0 24.97939 -0 -6.889187 -6.466837 -3.238757 -5.38455 13.28723 -20.71158 -0 4.518317 -0 -6.625199 -27.55041 17.53043 -1.638669 -0.9071059 4.411568 0.8784876 7.431812 -7.758203 2.010152 20.87257 8.011013 5.541433 -24.06462 9.184215 5.927832 -17.66651 9.96804 87.33813 36.28347 -23.06453 -0 0 15.922 -8.13373 9.490069 2.474649 8.603649 -22.21634 -1.44554 -96.75748 38.95265 23.70761 0 0 -25.19465 -4.509081 17.72011 21.92762
4.240557 97.86877 22.7173 -0.8877886 2.052082 4.482844 5.582834 -31.93432 5.850197 -0 20.69448 -0 -7.014011 -4.604985 -3.533514 -4.990481 14.18175 -19.08406 -0 5.634458 -0 -7.904749 -27.70498 15.93924 -1.386852 -0.3577384 4.001425 0.8401916 7.382034 -7.918705 2.083485 20.90657 7.918832 5.473012 -23.67252 9.014359 5.152728 -17.16259 9.785229 88.32935 35.61132 -23.68345 -0 0 14.52669 -9.328136 9.840302 2.961889 8.728037 -22.69473 -1.856471 -94.44933 38.96901 20.83693 0 0 -27.20638 -4.377329 16.73983 21.80862
4.406756 96.47224 26.68651 -1.033304 1.781076 5.170373 5.575048 -33.22887 5.020547 -0 16.71697 -0 -6.88398 -3.034186 -4.012356 -4.579466 15.23125 -17.26151 -0 7.45594 -0 -8.706389 -27.23653 14.55202 -1.120786 0.07948196 3.53828 0.9537598 7.389256 -8.151673 2.120242 20.91345 7.747774 5.214128 -23.37589 8.876914 4.354872 -16.63444 9.654785 89.36655 34.72443 -24.25274 -0 0 12.91731 -10.44194 10.18792 3.547259 8.72419 -23.0539 -2.201463 -91.88988 38.18163 17.6918 0 0 -28.73781 -3.592483 15.5702 20.86375
4.561041 95.01998 31.34641 -1.213452 1.389246 5.836269 5.719027 -33.8244 4.452228 -0 13.55493 -0 -6.474127 -1.898981 -4.647287 -4.175516 16.38099 -15.36871 -0 10.33803 -0 -9.106426 -25.94751 13.39856 -0.8282752 0.3348425 3.047999 1.206527 7.470025 -8.437868 2.095776 20.91997 7.506273 4.781851 -23.13264 8.740387 3.618993 -16.10269 9.597582 90.37401 33.64576 -24.74901 -0 0 11.19675 -11.45502 10.51661 4.192057 8.538975 -23.23036 -2.487138 -89.43721 36.61564 14.69087 0 0 -29.56515 -2.35317 14.25727 19.28395
4.727141 93.68735 36.7181 -1.384491 0.8170812 6.419995 5.969254 -33.34475 4.117658 -0 11.53957 -0 -5.80998 -1.263508 -5.350387 -3.807219 17.47083 -13.54015 -0 14.65528 -0 -9.278672 -23.71776 12.4513 -0.5071776 0.3705825 2.586515 1.554664 7.648944 -8.737901 1.994307 20.95027 7.219932 4.238171 -22.87461 8.562757 3.044981 -15.5902 9.63633 91.2657 32.45574 -25.16343 -0 0 9.504928 -12.40633 10.85017 4.863578 8.150742 -23.19976 -2.728816 -87.41153 34.43126 12.22897 0 0 -29.57836 -0.9383489 12.87386 17.36766
4.929568 92.66953 42.76274 -1.484278 0.03386989 6.848305 6.231835 -31.54997 3.941592 -0 10.71843 -0 -4.967834 -1.086842 -5.987046 -3.498672 18.20127 -11.89918 -0 20.68802 -0 -9.436345 -20.58589 11.67286 -0.1739998 0.2029621 2.244666 1.92271 7.956892 -8.991288 1.822846 21.01858 6.926817 3.684425 -22.52748 8.310146 2.729268 -15.12448 9.791773 91.95425 31.30323 -25.49469 -0 0 8.008494 -13.39157 11.2627 5.544049 7.585216 -22.99078 -2.940198 -86.00637 31.91612 10.57622 0 0 -28.84049 0.3493412 11.53773 15.4801
